<?xml version="1.0" encoding="utf-8"?>
<svg xmlns="http://www.w3.org/2000/svg" viewBox="0 0 24 33" width="24px" height="33px">
    <path d="M 12.005 0 C 5.381 0 0.011 5.412 0.011 12.088 C 0.011 12.85 0.087 13.591 0.222 14.312 C 0.516 15.913 1.13 17.439 2.029 18.802 L 2.138 18.952 L 11.969 32.998 L 21.917 18.892 L 21.962 18.828 C 22.93 17.37 23.568 15.726 23.836 14.003 C 23.935 13.379 24 12.741 24 12.088 C 24 5.412 18.63 0 12.005 0"
          fill="rgb(162, 51, 55)"/>
    <path d="M 11.995 0.002 C 5.37 0.002 0 5.412 0 12.089 C 0 12.852 0.08 13.592 0.212 14.315 C 0.506 15.915 1.12 17.44 2.021 18.804 L 2.127 18.954 L 11.961 33 L 21.908 18.894 L 21.951 18.829 C 22.919 17.372 23.556 15.728 23.825 14.004 C 23.925 13.38 23.989 12.742 23.989 12.089 C 23.989 5.412 18.62 0.002 11.995 0.002 M 11.995 0.848 C 18.136 0.848 23.134 5.892 23.134 12.089 C 23.134 12.632 23.082 13.212 22.98 13.874 C 22.719 15.512 22.134 17.025 21.25 18.348 L 21.204 18.41 L 11.964 31.515 L 2.835 18.474 L 2.739 18.338 C 1.899 17.072 1.327 15.651 1.054 14.16 C 0.924 13.476 0.86 12.784 0.856 12.09 C 0.856 5.892 5.854 0.848 11.995 0.848"
          fill="rgb(35, 31, 32)" opacity=".15"/>
    <path d="M 11.999 3 C 7.028 3 3 7.028 3 12.001 C 3 16.972 7.028 21 11.999 21 C 16.973 21 21 16.972 21 12.001 C 21 7.028 16.973 3 11.999 3 Z M 16.72 7.281 C 19.094 9.656 19.26 13.284 17.473 15.828 L 8.172 6.528 C 10.718 4.735 14.346 4.908 16.72 7.281 Z M 7.281 16.72 C 4.906 14.345 4.736 10.716 6.527 8.172 L 15.828 17.474 C 13.282 19.264 9.65 19.094 7.281 16.72 Z"
          fill="rgb(35, 31, 32)" opacity=".15"/>
    <path d="M 11.999 3.751 C 7.443 3.751 3.751 7.443 3.751 12.001 C 3.751 16.557 7.443 20.249 11.999 20.249 C 16.558 20.249 20.249 16.557 20.249 12.001 C 20.249 7.443 16.558 3.751 11.999 3.751 Z M 16.328 7.672 C 18.504 9.85 18.657 13.178 17.017 15.51 L 8.489 6.984 C 10.826 5.34 14.151 5.498 16.328 7.672 Z M 7.672 16.329 C 5.496 14.151 5.34 10.822 6.983 8.49 L 15.511 17.018 C 13.174 18.66 9.847 18.504 7.672 16.329 Z"
          fill="rgb(255, 255, 255)"/>
</svg>